# xmcd
#
# Track frame offsets: 
#        150
#        12412
#        24450
#        35582
#        51192
#        64747
#        75267
#        91172
#        112837
#        130937
#        144385
#        157362
#        177430
#
# Disc length: 2538 seconds
#
# Revision: 1
# Processed by: cddbd v1.5.2PL0 Copyright (c) Steve Scherf et al.
# Submitted via: ExactAudioCopyFreeDBPlugin 1.0
#
DISCID=a509e80d
DTITLE=Various Artist - Sweet Soul Music:  The Stax Groups
DYEAR=1988
DGENRE=Soul
TTITLE0=The Dramatics - Since I've Been in Love
TTITLE1=The Epsilons - The Echo
TTITLE2=The Limitations - All Because of You
TTITLE3=The Lords - Since I Fell for You
TTITLE4=The Newcomers - Mannish Boy
TTITLE5=The Leaders - Which Way
TTITLE6=The Newcomers - (Too Much in Common to Be Lovers) Too Much Goi
TTITLE6=ng on to Say Goodbye
TTITLE7=The Temprees - I Love You, You Love Me
TTITLE8=The Mad Lads - Let Me Repair Your Heart
TTITLE9=The Leaders - Anyone Can
TTITLE10=The Newcomers - Girl, This Boy Loves You
TTITLE11=Fat Larry's Band - Peaceful Journey
TTITLE12=Ollie and The Nightingales - I'll Be Your Anything
EXTD=
EXTT0=
EXTT1=
EXTT2=
EXTT3=
EXTT4=
EXTT5=
EXTT6=
EXTT7=
EXTT8=
EXTT9=
EXTT10=
EXTT11=
EXTT12=
PLAYORDER=
